<?xml version="1.0" encoding="UTF-8" standalone="no"?>
<!-- Created with Inkscape (http://www.inkscape.org/) -->

<svg
   xmlns:dc="http://purl.org/dc/elements/1.1/"
   xmlns:cc="http://creativecommons.org/ns#"
   xmlns:rdf="http://www.w3.org/1999/02/22-rdf-syntax-ns#"
   xmlns:svg="http://www.w3.org/2000/svg"
   xmlns="http://www.w3.org/2000/svg"
   xmlns:xlink="http://www.w3.org/1999/xlink"
   xmlns:sodipodi="http://sodipodi.sourceforge.net/DTD/sodipodi-0.dtd"
   xmlns:inkscape="http://www.inkscape.org/namespaces/inkscape"
   width="15"
   height="15"
   id="svg5453"
   version="1.1"
   inkscape:version="0.48.5 r10040"
   sodipodi:docname="gentoo.svg">
  <defs
     id="defs5455">
    <linearGradient
       id="linearGradient3004">
      <stop
         style="stop-color:#ffffff;stop-opacity:1;"
         offset="0"
         id="stop3006" />
      <stop
         id="stop7609"
         offset="0.34214258"
         style="stop-color:#ffffff;stop-opacity:1;" />
      <stop
         id="stop7599"
         offset="0.51998252"
         style="stop-color:#bebdf3;stop-opacity:1;" />
      <stop
         style="stop-color:#8f82f9;stop-opacity:1;"
         offset="0.75408828"
         id="stop7611" />
      <stop
         id="stop7613"
         offset="0.8711412"
         style="stop-color:#9f99c7;stop-opacity:1;" />
      <stop
         style="stop-color:#524c76;stop-opacity:1;"
         offset="1"
         id="stop3008" />
    </linearGradient>
    <linearGradient
       gradientTransform="matrix(1.237124,0,0,1.237124,-161.0905,-377.3414)"
       gradientUnits="userSpaceOnUse"
       y2="269.70941"
       x2="368.62137"
       y1="697.43707"
       x1="464.01675"
       id="linearGradient2986"
       xlink:href="#linearGradient3004"
       inkscape:collect="always" />
    <linearGradient
       gradientTransform="matrix(1.237124,0,0,1.237124,-1037.425,-1010.413)"
       gradientUnits="userSpaceOnUse"
       y2="1340.5599"
       x2="1099.6853"
       y1="-313.5238"
       x1="783.86316"
       id="linearGradient2994"
       xlink:href="#linearGradient3004"
       inkscape:collect="always" />
    <radialGradient
       r="218.02184"
       fy="590.5899"
       fx="332.72311"
       cy="590.5899"
       cx="332.72311"
       gradientTransform="matrix(-0.0660395,4.190266,-3.573754,-0.05626827,2168.154,-1171.421)"
       gradientUnits="userSpaceOnUse"
       id="radialGradient3228"
       xlink:href="#linearGradient3004"
       inkscape:collect="always" />
    <radialGradient
       gradientUnits="userSpaceOnUse"
       gradientTransform="matrix(3.287367,0,0,2.519654,111.6891,-642.7214)"
       r="31.94874"
       fy="320.08572"
       fx="49.529819"
       cy="320.08572"
       cx="49.529819"
       id="radialGradient5851"
       xlink:href="#linearGradient3004"
       inkscape:collect="always" />
  </defs>
  <sodipodi:namedview
     id="base"
     pagecolor="#ffffff"
     bordercolor="#666666"
     borderopacity="1.0"
     inkscape:pageopacity="0"
     inkscape:pageshadow="2"
     inkscape:zoom="12.078125"
     inkscape:cx="17.097025"
     inkscape:cy="32.455369"
     inkscape:document-units="px"
     inkscape:current-layer="layer1"
     showgrid="true"
     fit-margin-top="0"
     fit-margin-left="0"
     fit-margin-right="0"
     fit-margin-bottom="0"
     inkscape:window-width="1920"
     inkscape:window-height="1122"
     inkscape:window-x="-2"
     inkscape:window-y="32"
     inkscape:window-maximized="1"
     inkscape:showpageshadow="false"
     borderlayer="true"
     inkscape:snap-bbox="true"
     inkscape:snap-global="true">
    <sodipodi:guide
       position="6.0000117,57.999996"
       orientation="51.999969,0"
       id="guide4097" />
    <sodipodi:guide
       position="6.0000117,6.0000264"
       orientation="0,52"
       id="guide4099" />
    <sodipodi:guide
       position="58.000012,6.0000264"
       orientation="-51.999969,0"
       id="guide4101" />
    <sodipodi:guide
       position="58.000012,57.999996"
       orientation="0,-52"
       id="guide4103" />
    <sodipodi:guide
       position="3.0000117,60.999996"
       orientation="57.999969,0"
       id="guide4105" />
    <sodipodi:guide
       position="3.0000117,3.0000264"
       orientation="0,58"
       id="guide4107" />
    <sodipodi:guide
       position="61.000012,3.0000264"
       orientation="-57.999969,0"
       id="guide4109" />
    <sodipodi:guide
       position="61.000012,60.999996"
       orientation="0,-58"
       id="guide4111" />
    <inkscape:grid
       type="xygrid"
       id="grid4115"
       empspacing="5"
       visible="true"
       enabled="true"
       snapvisiblegridlinesonly="true" />
  </sodipodi:namedview>
  <metadata
     id="metadata5458">
    <rdf:RDF>
      <cc:Work
         rdf:about="">
        <dc:format>image/svg+xml</dc:format>
        <dc:type
           rdf:resource="http://purl.org/dc/dcmitype/StillImage" />
        <dc:title />
      </cc:Work>
    </rdf:RDF>
  </metadata>
  <g
     inkscape:label="Capa 1"
     inkscape:groupmode="layer"
     id="layer1"
     transform="translate(-384.57143,-532.798)">
    <g
       id="g4402"
       transform="matrix(0.02522438,0,0,0.02409621,384.57143,532.798)">
      <g
         transform="translate(-25.69105,-25.5213)"
         style="display:inline"
         inkscape:label="back"
         id="layer2">
        <path
           sodipodi:nodetypes="cscssssssssssscss"
           d="M 25.756851,521.91391 C 25.825031,495.65357 48.148853,458.98977 79.868697,425.68116 101.06675,403.42137 122.59556,383.88231 169.52585,343.86782 137.06358,326.05537 86.575337,304.5643 61.242464,276.41883 51.868932,266.00461 34.879101,242.4107 38.174477,210.88878 44.890902,146.64282 124.18914,49.142619 236.90525,28.529375 c 37.50415,-6.858661 80.56354,-1.907781 116.00271,14.024919 111.18036,49.984243 247.14797,174.162266 263.8771,234.794926 5.88837,21.34165 4.75656,55.36025 -5.39475,74.31982 -12.58141,23.49823 -56.1358,71.22495 -115.72484,120.47315 -93.4994,77.2739 -224.52102,160.24847 -322.35291,174.21052 -31.611,4.51135 -63.90775,-0.19399 -86.572466,-12.98278 C 51.279241,613.36083 39.508186,586.6468 35.370326,578.63961 24.367104,557.34729 25.73287,530.37254 25.756851,521.91391 z M 288.89937,226.87362 c 1.20738,-14.88942 59.59326,-0.0658 55.90415,11.72547 -3.89197,12.43966 -57.28926,5.35537 -55.90415,-11.72547 z"
           style="fill:url(#linearGradient2994);fill-opacity:1;fill-rule:evenodd;stroke:none"
           id="path2973"
           inkscape:connector-curvature="0" />
      </g>
      <g
         transform="translate(-25.69105,-25.5213)"
         style="display:inline"
         inkscape:label="mid"
         id="layer4">
        <path
           sodipodi:nodetypes="csssssssccssss"
           d="M 201.12502,319.26488 C 170.40092,345.206 149.97273,362.69737 124.3619,386.10521 62.686019,442.47585 20.779962,485.38384 42.384986,544.03745 67.307886,611.6985 121.94112,608.26771 186.00654,595.69143 351.14346,563.12161 622.59855,354.43165 608.76251,277.34931 597.56708,214.97818 445.90819,90.975251 356.11423,46.84913 328.062,33.063819 295.73224,25.934162 263.30502,27.459889 139.83437,33.287522 43.410732,145.70192 48.3364,206.6102 53.12843,265.866 202.89233,317.49757 201.12502,319.26488 z M 182.59146,112.40184 c -37.15326,41.33629 -13.39873,121.3113 48.21486,164.90276 72.09526,51.00721 188.8443,60.24272 212.0774,20.90556 43.33515,-73.37278 -3.98029,-150.9555 -74.61054,-185.56335 -69.7954,-34.198724 -162.52227,-26.01189 -185.68172,-0.24497 z"
           style="fill:url(#linearGradient2986);fill-opacity:1;fill-rule:evenodd;stroke:none"
           id="path2975"
           inkscape:connector-curvature="0" />
        <path
           sodipodi:nodetypes="csssscss"
           d="m 309.29559,275.57053 c 52.15894,7.24994 97.11719,-13.63858 104.1475,-65.14342 5.35537,-39.2337 -54.68938,-82.09994 -90.78995,-91.98681 -30.14631,-8.25614 -95.59547,2.36034 -100.00778,59.37779 -4.58678,59.27202 56.23678,93.52508 86.65023,97.75244 z m -25.54268,-98.581 c -34.27878,53.10396 49.77027,69.43027 62.63837,59.7456 55.47708,-41.75261 -47.53597,-83.14191 -62.63837,-59.7456 z"
           style="fill:url(#radialGradient5851);fill-opacity:1;fill-rule:evenodd;stroke:none;display:inline"
           id="path4976"
           inkscape:connector-curvature="0" />
      </g>
      <g
         transform="translate(-25.69105,-25.5213)"
         style="display:inline"
         inkscape:label="top"
         id="layer5">
        <path
           sodipodi:nodetypes="cssssssssssscsscsss"
           id="path2977"
           d="M 253.35285,41.570018 C 192.71898,47.959829 181.10644,55.76371 126.17687,97.322591 107.767,111.25125 73.883463,145.14202 65.201668,185.34831 c -3.306505,15.31275 0.601944,28.53259 11.630184,37.80412 35.312998,29.68796 94.416058,53.77395 142.904478,77.05704 14.20232,6.81964 4.79874,19.18504 -18.10392,39.01252 -57.79173,50.03186 -135.926941,110.93446 -141.3817,157.34203 -2.570415,21.86837 4.916125,51.5832 31.459397,66.7898 31.006723,17.76369 95.372133,6.16955 138.351373,-9.835 62.80599,-23.38762 145.30781,-75.00368 210.80628,-125.74104 68.11013,-52.76042 131.43764,-119.77326 134.57017,-130.70294 3.84668,-13.42147 3.46325,-25.81795 -3.96035,-40.07068 C 559.81983,234.62227 544.23417,217.99109 527.49924,199.37578 482.59667,152.03725 435.087,110.44129 378.2447,78.565883 337.19672,55.547464 301.08129,36.540217 253.35285,41.570018 z m 89.06787,106.129442 c 43.80514,21.17863 88.78971,76.80693 -0.39035,108.8248 -24.25015,8.70642 -101.15792,-21.38222 -98.80358,-62.4438 3.43316,-60.65568 45.70723,-72.24041 99.19393,-46.381 z"
           style="fill:url(#radialGradient3228);fill-opacity:1;fill-rule:evenodd;stroke:none"
           inkscape:connector-curvature="0" />
      </g>
    </g>
  </g>
</svg>
